<svg width="40" height="40" viewBox="0 0 40 40" fill="none" xmlns="http://www.w3.org/2000/svg">
<path fill-rule="evenodd" clip-rule="evenodd" d="M13.647 17.4467L19.8614 11.2325L26.0792 17.45L29.6952 13.834L19.8614 4L10.031 13.8307L13.647 17.4467ZM11.0934 19.9994L7.47743 16.3835L3.86133 19.9996L7.47725 23.6155L11.0934 19.9994ZM19.8614 28.7675L13.6469 22.5533L10.0257 26.1645L10.0307 26.1696L19.8614 36L29.6951 26.1663L29.6969 26.1643L26.0789 22.5503L19.8614 28.7675ZM32.2457 23.6173L35.8618 20.0012L32.2459 16.3852L28.6298 20.0013L32.2457 23.6173ZM23.5307 19.9981H23.5292L23.5325 19.9999L23.5307 20.0019L19.8614 23.6712L16.1954 20.0052L16.1903 19.9999L16.1954 19.9948L16.8381 19.3521L17.1495 19.0405H17.1497L19.8614 16.3288L23.5307 19.9981Z" fill="white"/>
</svg>
