<svg width="144" height="37" viewBox="0 0 144 37" fill="none" xmlns="http://www.w3.org/2000/svg">
<path d="M135 36L143 36L143 28" stroke="black" stroke-width="0.5"/>
<path d="M9 36L1 36L1 28" stroke="white" stroke-width="0.5"/>
<path d="M135 1L143 1L143 9" stroke="white" stroke-width="0.5"/>
<path d="M9 1L5 1L3 3L1 5L1 9" stroke="white" stroke-width="0.5"/>
<path fill-rule="evenodd" clip-rule="evenodd" d="M140 5H7V32H140V5ZM53.701 21.7H56.557L56.965 23.5H58.621L56.617 15.1H53.641L51.637 23.5H53.293L53.701 21.7ZM56.209 20.188H54.037L55.021 15.892H55.237L56.209 20.188ZM65.2847 15.1H59.6687V16.612H61.6847V21.988H59.6687V23.5H65.2847V21.988H63.2687V16.612H65.2847V15.1ZM75.744 21.7H78.6L79.008 23.5H80.664L78.66 15.1H75.684L73.68 23.5H75.336L75.744 21.7ZM78.252 20.188H76.08L77.064 15.892H77.28L78.252 20.188ZM85.7797 23.5H87.3637V20.596C87.3637 20.316 87.2797 20.084 87.1117 19.9C86.9517 19.716 86.7317 19.608 86.4517 19.576V19.36C86.8357 19.2 87.1197 18.972 87.3037 18.676C87.4877 18.372 87.5797 18.048 87.5797 17.704V17.416C87.5797 17.096 87.5197 16.796 87.3997 16.516C87.2877 16.236 87.1197 15.992 86.8957 15.784C86.6797 15.568 86.4077 15.4 86.0797 15.28C85.7517 15.16 85.3717 15.1 84.9397 15.1H81.7237V23.5H83.3077V20.332H85.1317C85.3637 20.332 85.5277 20.392 85.6237 20.512C85.7277 20.632 85.7797 20.788 85.7797 20.98V23.5ZM84.8197 18.82H83.3077V16.612H84.8197C85.2037 16.612 85.4957 16.716 85.6957 16.924C85.8957 17.124 85.9957 17.364 85.9957 17.644V17.788C85.9957 18.116 85.8957 18.372 85.6957 18.556C85.4957 18.732 85.2037 18.82 84.8197 18.82ZM94.8913 15.1H88.8433V16.612H91.0753V23.5H92.6593V16.612H94.8913V15.1Z" fill="white"/>
</svg>
