<svg width="113" height="110" viewBox="0 0 113 110" fill="none" xmlns="http://www.w3.org/2000/svg">
<g opacity="0.1" filter="url(#filter0_b_829_1742)">
<path fill-rule="evenodd" clip-rule="evenodd" d="M51 59H5L3 61L1 63V109H51V59Z" fill="white" fill-opacity="0.2"/>
</g>
<path d="M9 109L1 109L1 101" stroke="white" stroke-width="0.5"/>
<rect x="12.1" y="73.1" width="27.8" height="27.8" stroke="white" stroke-width="0.2"/>
<g opacity="0.1" filter="url(#filter1_b_829_1742)">
<path fill-rule="evenodd" clip-rule="evenodd" d="M112 109L112 63L110 61L108 59L62 59L62 109L112 109Z" fill="white" fill-opacity="0.2"/>
</g>
<path d="M112 101L112 109L104 109" stroke="white" stroke-width="0.5"/>
<rect x="73.1" y="70.1" width="27.8" height="27.8" stroke="white" stroke-width="0.2"/>
<path d="M49.5077 60.5566L46.9998 58.0645L51.9998 58.0487L52.0156 63.0487L49.5077 60.5566Z" fill="white"/>
<path d="M65.0077 60.5079L62.5157 63.0158L62.4999 58.0158L67.4998 58L65.0077 60.5079Z" fill="white"/>
<g opacity="0.1" filter="url(#filter2_b_829_1742)">
<path fill-rule="evenodd" clip-rule="evenodd" d="M51 1H5L3 3L1 5V51H51V1Z" fill="white" fill-opacity="0.2"/>
</g>
<path d="M48.75 48.75L51.25 46.25V51.25H46.25L48.75 48.75Z" fill="white"/>
<rect x="12.1" y="12.1" width="27.8" height="27.8" stroke="white" stroke-width="0.2"/>
<path d="M1 9.00024L1 1.00025H9" stroke="white" stroke-width="0.5"/>
<g opacity="0.1" filter="url(#filter3_b_829_1742)">
<path fill-rule="evenodd" clip-rule="evenodd" d="M112 51V5L110 3L108 1L62 1V51H112Z" fill="white" fill-opacity="0.2"/>
</g>
<path d="M64.25 48.75L66.75 51.25H61.75V46.25L64.25 48.75Z" fill="white"/>
<rect x="73.1" y="12.1" width="27.8" height="27.8" stroke="white" stroke-width="0.2"/>
<path d="M104 1L112 1V9" stroke="white" stroke-width="0.5"/>
<path d="M57.0622 54.956H55.2622L54.9562 56H54.4162L55.6882 51.8H56.6362L57.9082 56H57.3682L57.0622 54.956ZM56.1262 52.016L55.4002 54.488H56.9242L56.1982 52.016H56.1262ZM58.504 51.8H61.168V52.268H60.088V55.532H61.168V56H58.504V55.532H59.584V52.268H58.504V51.8Z" fill="white"/>
<defs>
<filter id="filter0_b_829_1742" x="-5" y="53" width="62" height="62" filterUnits="userSpaceOnUse" color-interpolation-filters="sRGB">
<feFlood flood-opacity="0" result="BackgroundImageFix"/>
<feGaussianBlur in="BackgroundImageFix" stdDeviation="3"/>
<feComposite in2="SourceAlpha" operator="in" result="effect1_backgroundBlur_829_1742"/>
<feBlend mode="normal" in="SourceGraphic" in2="effect1_backgroundBlur_829_1742" result="shape"/>
</filter>
<filter id="filter1_b_829_1742" x="56" y="53" width="62" height="62" filterUnits="userSpaceOnUse" color-interpolation-filters="sRGB">
<feFlood flood-opacity="0" result="BackgroundImageFix"/>
<feGaussianBlur in="BackgroundImageFix" stdDeviation="3"/>
<feComposite in2="SourceAlpha" operator="in" result="effect1_backgroundBlur_829_1742"/>
<feBlend mode="normal" in="SourceGraphic" in2="effect1_backgroundBlur_829_1742" result="shape"/>
</filter>
<filter id="filter2_b_829_1742" x="-5" y="-5" width="62" height="62" filterUnits="userSpaceOnUse" color-interpolation-filters="sRGB">
<feFlood flood-opacity="0" result="BackgroundImageFix"/>
<feGaussianBlur in="BackgroundImageFix" stdDeviation="3"/>
<feComposite in2="SourceAlpha" operator="in" result="effect1_backgroundBlur_829_1742"/>
<feBlend mode="normal" in="SourceGraphic" in2="effect1_backgroundBlur_829_1742" result="shape"/>
</filter>
<filter id="filter3_b_829_1742" x="56" y="-5" width="62" height="62" filterUnits="userSpaceOnUse" color-interpolation-filters="sRGB">
<feFlood flood-opacity="0" result="BackgroundImageFix"/>
<feGaussianBlur in="BackgroundImageFix" stdDeviation="3"/>
<feComposite in2="SourceAlpha" operator="in" result="effect1_backgroundBlur_829_1742"/>
<feBlend mode="normal" in="SourceGraphic" in2="effect1_backgroundBlur_829_1742" result="shape"/>
</filter>
</defs>
</svg>
