<svg width="10" height="8" viewBox="0 0 10 8" fill="none" xmlns="http://www.w3.org/2000/svg">
<path d="M4.8125 0.311035L0.558594 7.56641L9.06201 7.5708L4.8125 0.311035ZM6.29785 5.54492H7.08887V5.54053C6.99219 6.09424 6.72852 6.54688 6.30225 6.90283C5.87158 7.26318 5.38379 7.43896 4.83008 7.43896C4.19287 7.43896 3.65234 7.21484 3.2041 6.7666C2.75586 6.31836 2.53174 5.77783 2.53174 5.14502C2.53174 4.51221 2.75586 3.97168 3.2041 3.52344C3.65234 3.0752 4.19287 2.84668 4.83008 2.84668C5.38379 2.84668 5.87158 3.02686 6.30225 3.38721C6.72852 3.74756 6.99219 4.2002 7.08887 4.74512L7.08447 4.72314H6.30225H6.30664C6.21436 4.39355 6.02979 4.12109 5.75732 3.91016C5.48486 3.69922 5.17725 3.59375 4.83447 3.59375C4.4126 3.59375 4.05225 3.74316 3.75342 4.04199C3.45459 4.34082 3.30518 4.69678 3.30518 5.11865C3.30518 5.54053 3.45459 5.90088 3.75342 6.19971C4.05225 6.49854 4.4126 6.64795 4.83447 6.64795C5.17725 6.64795 5.48486 6.54248 5.75732 6.33154C6.02979 6.12061 6.21436 5.84814 6.30664 5.51416L6.29785 5.54492ZM4.81689 3.99365C4.90918 3.99365 4.98389 4.10791 5.04541 4.33203C5.0542 4.36279 5.06299 4.41113 5.07617 4.47266C5.09375 4.45947 5.11572 4.44629 5.1377 4.43311C5.15527 4.42432 5.17725 4.41113 5.19922 4.39355C5.39697 4.2793 5.52881 4.25732 5.59912 4.31885C5.66504 4.38916 5.63867 4.521 5.52441 4.72314C5.50684 4.74951 5.48486 4.78906 5.44971 4.8418C5.47168 4.85059 5.49365 4.85938 5.52002 4.86377C5.54199 4.86816 5.56396 4.87256 5.59033 4.87695C5.81445 4.93848 5.92871 5.01318 5.92871 5.10547C5.92871 5.20215 5.81445 5.27686 5.59033 5.33838C5.55957 5.34717 5.51123 5.36035 5.44971 5.36914C5.4585 5.39551 5.47168 5.41748 5.48486 5.43506C5.49805 5.45703 5.51123 5.47461 5.52441 5.49219C5.63867 5.69434 5.66504 5.83057 5.59912 5.89648C5.52881 5.9668 5.39697 5.94043 5.19922 5.81738C5.17725 5.80859 5.15527 5.7998 5.1377 5.78662C5.11572 5.77344 5.09375 5.76025 5.07617 5.74268C5.06299 5.80859 5.0542 5.85693 5.04541 5.8833C4.98389 6.11182 4.90918 6.22168 4.81689 6.22168C4.72021 6.22168 4.64551 6.10742 4.58398 5.87891C4.5752 5.85254 4.56201 5.80859 4.55322 5.74268C4.52686 5.76025 4.50488 5.77344 4.4873 5.78662C4.46533 5.7998 4.44775 5.80859 4.43018 5.81738C4.22803 5.94043 4.0918 5.9668 4.02588 5.89648C3.95557 5.83057 3.98193 5.69434 4.10498 5.49219C4.13135 5.43945 4.15771 5.3999 4.17969 5.36914C4.11377 5.36035 4.06543 5.34717 4.03906 5.33838C3.81055 5.27686 3.70068 5.20215 3.70068 5.10547C3.70068 5.01318 3.81055 4.93848 4.03906 4.87695C4.05664 4.87256 4.07861 4.86816 4.10498 4.86377C4.12695 4.85938 4.15332 4.85059 4.17969 4.8418C4.15771 4.81543 4.13135 4.77588 4.10498 4.72314C3.98193 4.521 3.95557 4.38916 4.02588 4.31885C4.0918 4.25732 4.22803 4.2793 4.43018 4.39355C4.44775 4.41113 4.46533 4.42432 4.4873 4.43311C4.50488 4.44629 4.52686 4.45947 4.55322 4.47266C4.56201 4.41113 4.5752 4.36279 4.58398 4.33203C4.64551 4.10791 4.72021 3.99365 4.81689 3.99365ZM4.81689 4.05518C4.74658 4.05518 4.68945 4.15625 4.64111 4.34961C4.62354 4.41113 4.61035 4.46387 4.60596 4.50781C4.6499 4.54736 4.72021 4.60449 4.81689 4.6748C4.88721 4.61328 4.95312 4.56055 5.02344 4.50781C5.01465 4.46387 5.00146 4.41113 4.98828 4.34961C4.93555 4.15625 4.87842 4.05518 4.81689 4.05518ZM5.08936 4.53857C5.09814 4.6001 5.10693 4.68799 5.12012 4.80225C5.23438 4.81543 5.32227 4.82422 5.38379 4.83301C5.41895 4.78467 5.44531 4.73633 5.47168 4.69238C5.57275 4.521 5.60352 4.41113 5.55957 4.36279C5.51562 4.31885 5.40576 4.34961 5.22559 4.44629C5.18604 4.47266 5.14209 4.50342 5.08936 4.53857ZM5.12451 4.86377C5.12451 4.88135 5.12451 4.90332 5.12451 4.9209C5.12451 4.94287 5.12891 4.96045 5.12891 4.97803C5.16406 5.01318 5.19043 5.04395 5.20801 5.06152C5.28711 4.96045 5.33105 4.90332 5.34424 4.88574C5.25635 4.87695 5.18604 4.87256 5.12451 4.86377ZM5.12891 5.06592V5.08789V5.10547H5.1333H5.12891V5.13184V5.14502L5.16846 5.10547C5.15967 5.10107 5.15088 5.09668 5.14648 5.08789C5.1377 5.0835 5.1333 5.07471 5.12891 5.06592ZM5.07178 5.10547V5.05273V5C5.0542 4.99121 5.04102 4.97803 5.03223 4.96484C5.01904 4.95605 5.00586 4.94287 4.99707 4.92529L4.92236 4.85059H4.86963H4.81689H4.75977H4.70703L4.63232 4.92529L4.59277 4.96484L4.55762 5V5.05273V5.10547V5.1626V5.21094C4.56641 5.22852 4.57959 5.2417 4.59277 5.25488C4.60156 5.26807 4.61475 5.28125 4.63232 5.29004L4.70703 5.36475H4.75977H4.81689H4.86963H4.92236L4.99707 5.29004C5.00586 5.28125 5.01904 5.26807 5.03223 5.25488C5.04102 5.2417 5.0542 5.22852 5.07178 5.21094V5.1626V5.10547ZM5.06738 4.91211C5.06738 4.90332 5.06299 4.89453 5.06299 4.88574C5.06299 4.87695 5.06299 4.86816 5.06299 4.85938C5.0498 4.85938 5.03223 4.85498 5.01025 4.85498C5.01025 4.86377 5.01465 4.86816 5.01904 4.87256C5.02344 4.87695 5.02783 4.88135 5.03662 4.88135C5.03662 4.89014 5.04102 4.89453 5.0498 4.89893C5.0542 4.90771 5.05859 4.91211 5.06738 4.91211ZM5.05859 4.79785C5.0498 4.71875 5.04102 4.64404 5.03223 4.57373C5.00586 4.6001 4.9751 4.62207 4.94434 4.64404C4.91357 4.66602 4.88721 4.68799 4.86084 4.71436C4.86963 4.73193 4.88281 4.74512 4.90039 4.75391C4.91357 4.76709 4.92676 4.78027 4.94434 4.79346C4.99707 4.79346 5.03223 4.79785 5.05859 4.79785ZM5.12891 5.2373C5.12891 5.25928 5.12451 5.28125 5.12451 5.29883C5.12451 5.31641 5.12451 5.33398 5.12451 5.35156C5.18604 5.35156 5.25635 5.34277 5.34424 5.32959C5.30469 5.27686 5.26074 5.21973 5.20801 5.15381C5.19043 5.17139 5.17725 5.18457 5.16406 5.19775C5.15088 5.21533 5.1377 5.22852 5.12891 5.2373ZM5.12012 5.41309C5.10693 5.53174 5.09814 5.61963 5.08936 5.67676C5.14209 5.7207 5.18604 5.75146 5.22559 5.76904C5.40137 5.87012 5.51562 5.89648 5.55957 5.85254C5.60352 5.80859 5.57275 5.69873 5.47168 5.52295C5.4541 5.48779 5.42334 5.44385 5.38379 5.38232C5.32227 5.39551 5.23438 5.4043 5.12012 5.41309ZM4.98828 5.86572C5.00146 5.80859 5.01465 5.75586 5.02344 5.70312C4.93555 5.6416 4.86523 5.58887 4.81689 5.54053C4.75537 5.59326 4.68506 5.646 4.60596 5.70312C4.61035 5.75586 4.62354 5.80859 4.64111 5.86572C4.68945 6.06348 4.74658 6.16016 4.81689 6.16016C4.87842 6.16016 4.93555 6.06348 4.98828 5.86572ZM5.03223 5.63721C5.04102 5.57568 5.0498 5.50098 5.05859 5.41748C5.04102 5.41748 5.01904 5.42188 5.00146 5.42188C4.97949 5.42188 4.96191 5.42188 4.94434 5.42188C4.92676 5.43945 4.91357 5.45264 4.90039 5.46582C4.88281 5.479 4.86963 5.49219 4.86084 5.50098C4.91357 5.54932 4.9707 5.59326 5.03223 5.63721ZM5.06299 5.35596C5.06299 5.34717 5.06299 5.33838 5.06299 5.32959C5.06299 5.3208 5.06738 5.31201 5.06738 5.30322C5.05859 5.31201 5.0542 5.31641 5.0498 5.3208C5.04102 5.3252 5.03662 5.32959 5.03662 5.32959V5.33398L5.01025 5.36035C5.01904 5.36035 5.02783 5.36035 5.03662 5.36035C5.04541 5.36035 5.0542 5.35596 5.06299 5.35596ZM4.54004 5.67676C4.47852 5.7207 4.43457 5.75146 4.39941 5.76904C4.22363 5.87451 4.11377 5.90088 4.06982 5.85254C4.02148 5.80859 4.04785 5.69873 4.15332 5.52295C4.1709 5.48779 4.20166 5.44385 4.24561 5.38232C4.29834 5.39111 4.38623 5.4043 4.50928 5.41309C4.51807 5.53174 4.52686 5.61963 4.54004 5.67676ZM4.50488 5.35156C4.43896 5.35156 4.36426 5.34277 4.28516 5.32959C4.32031 5.27686 4.36426 5.21973 4.42139 5.15381C4.43018 5.17139 4.44336 5.18457 4.45654 5.19775C4.46973 5.21533 4.48291 5.22852 4.50049 5.2373C4.50049 5.25928 4.50049 5.28125 4.50049 5.29883C4.50049 5.31641 4.50488 5.33398 4.50488 5.35156ZM4.50049 5.14502L4.46094 5.10547L4.47852 5.08789L4.50049 5.06592C4.49609 5.07471 4.49609 5.08789 4.49609 5.10547C4.49609 5.12744 4.49609 5.14062 4.50049 5.14502ZM4.56201 5.30322C4.56201 5.31201 4.56641 5.31641 4.5708 5.3208C4.5752 5.3252 4.57959 5.32959 4.58838 5.32959V5.33398C4.58838 5.33838 4.60156 5.34717 4.61914 5.36035C4.61035 5.36035 4.60156 5.36035 4.59277 5.36035C4.58398 5.36035 4.5752 5.35596 4.56641 5.35596C4.56641 5.34717 4.56201 5.33838 4.56201 5.32959C4.56201 5.3208 4.56201 5.31201 4.56201 5.30322ZM4.5708 5.41748C4.58838 5.41748 4.60596 5.42188 4.62354 5.42188C4.64111 5.42188 4.66309 5.42188 4.68506 5.42188C4.69385 5.43945 4.70703 5.45264 4.72461 5.46582C4.73779 5.479 4.75098 5.49219 4.76855 5.50098C4.70264 5.55811 4.64551 5.60205 4.59277 5.63721C4.57959 5.55811 4.5708 5.4834 4.5708 5.41748ZM4.50049 4.97803C4.46533 5.01318 4.43896 5.04395 4.42139 5.06152C4.33789 4.96045 4.29395 4.90332 4.28516 4.88574C4.36426 4.87695 4.43896 4.87256 4.50488 4.86377C4.50488 4.88135 4.50049 4.90332 4.50049 4.9209C4.50049 4.94287 4.50049 4.96045 4.50049 4.97803ZM4.50928 4.80225C4.38623 4.81543 4.29834 4.82422 4.24561 4.83301C4.21045 4.79346 4.17969 4.74512 4.15332 4.69238C4.04785 4.521 4.02148 4.41113 4.06982 4.36279C4.10938 4.31885 4.21924 4.34961 4.39941 4.44629C4.43457 4.46826 4.47852 4.49902 4.54004 4.53857C4.52686 4.6001 4.51807 4.68799 4.50928 4.80225ZM4.59277 4.57373C4.68506 4.64844 4.74219 4.69678 4.76855 4.71436C4.75098 4.73193 4.73779 4.74512 4.72461 4.75391C4.70703 4.76709 4.69385 4.78027 4.68506 4.79346C4.63232 4.79346 4.59277 4.79785 4.5708 4.79785C4.5708 4.74512 4.57959 4.67041 4.59277 4.57373ZM4.56641 4.85938C4.5752 4.85938 4.59277 4.85498 4.61914 4.85498C4.60596 4.86816 4.59717 4.87695 4.58838 4.88135C4.57959 4.89014 4.5752 4.89453 4.5708 4.89893C4.56641 4.90771 4.56201 4.91211 4.56201 4.91211C4.56201 4.90332 4.56201 4.89453 4.56201 4.88574C4.56201 4.87695 4.56641 4.86816 4.56641 4.85938ZM4.85645 4.78906C4.84766 4.78467 4.83887 4.78027 4.83447 4.77588C4.82568 4.77148 4.82129 4.7627 4.81689 4.75391C4.80811 4.7627 4.79932 4.77148 4.79053 4.77588C4.78174 4.78027 4.77734 4.78467 4.77295 4.78906H4.79053H4.81689H4.83447H4.85645ZM5.24756 5.10547C5.2915 5.16699 5.34863 5.2373 5.41016 5.31641C5.4541 5.31201 5.51123 5.29883 5.57275 5.28125C5.76611 5.23291 5.86719 5.17578 5.86719 5.10547C5.86719 5.04395 5.76611 4.98682 5.57275 4.93408C5.51123 4.9209 5.4541 4.90771 5.41016 4.89893C5.34424 4.98682 5.2915 5.05713 5.24756 5.10547ZM4.77295 5.42188H4.79053H4.81689V5.42627V5.42188H4.83447H4.85645L4.83447 5.44385L4.81689 5.46143C4.80811 5.45703 4.79932 5.45264 4.79053 5.44385C4.78174 5.43945 4.77734 5.43066 4.77295 5.42188ZM4.38184 5.10547C4.3291 5.16699 4.27637 5.2373 4.21924 5.31641C4.1665 5.31201 4.11377 5.29883 4.05664 5.28125C3.85889 5.23291 3.76221 5.17578 3.76221 5.10547C3.76221 5.04395 3.85889 4.98682 4.05664 4.93408C4.11377 4.9209 4.1665 4.90771 4.21924 4.89893C4.28076 4.98682 4.3335 5.05713 4.38184 5.10547Z" fill="#202124"/>
</svg>
