<svg width="47" height="48" viewBox="0 0 47 48" fill="none" xmlns="http://www.w3.org/2000/svg">
<path d="M23.4995 46.8124C20.4481 46.8124 17.4265 46.2112 14.6075 45.0432C11.7884 43.8751 9.22715 42.1631 7.06992 40.005C4.91268 37.8468 3.20177 35.2848 2.03494 32.4652C0.868116 29.6457 0.26822 26.6239 0.269533 23.5724V23.5724C0.269533 17.4114 2.71697 11.5028 7.07344 7.14632C11.4299 2.78985 17.3386 0.342407 23.4995 0.342407C29.6605 0.342407 35.5692 2.78985 39.9256 7.14632C44.2821 11.5028 46.7295 17.4114 46.7295 23.5724V23.5724C46.7309 26.6239 46.131 29.6457 44.9641 32.4652C43.7973 35.2848 42.0864 37.8468 39.9292 40.005C37.7719 42.1631 35.2106 43.8751 32.3916 45.0432C29.5725 46.2112 26.551 46.8124 23.4995 46.8124V46.8124Z" stroke="white" stroke-width="0.5" stroke-miterlimit="10"/>
<path d="M20.3593 36.0317H25.3593V23.4717H28.8593L29.2293 19.2617H25.3593V16.8717C25.3593 15.8717 25.5593 15.4917 26.5193 15.4917H29.2293V11.1217H25.7593C22.0293 11.1217 20.3393 12.7717 20.3393 15.9117V19.2617H17.7393V23.5217H20.3393L20.3593 36.0317Z" fill="white"/>
</svg>
