<svg width="144" height="37" viewBox="0 0 144 37" fill="none" xmlns="http://www.w3.org/2000/svg">
<path d="M135 36L143 36L143 28" stroke="white" stroke-width="0.5"/>
<path d="M9 36L1 36L1 28" stroke="white" stroke-width="0.5"/>
<path d="M135 1L143 1L143 9" stroke="white" stroke-width="0.5"/>
<path d="M9 1L5 1L3 3L1 5L1 9" stroke="white" stroke-width="0.5"/>
<path fill-rule="evenodd" clip-rule="evenodd" d="M140 5H7V32H140V5ZM41.4777 16.792C41.7417 17.04 41.8737 17.332 41.8737 17.668V17.956H43.4577V17.524C43.4577 17.18 43.3897 16.852 43.2537 16.54C43.1257 16.228 42.9297 15.952 42.6657 15.712C42.4097 15.472 42.0897 15.284 41.7057 15.148C41.3217 15.004 40.8817 14.932 40.3857 14.932C39.9457 14.932 39.5457 14.992 39.1857 15.112C38.8337 15.232 38.5297 15.4 38.2737 15.616C38.0257 15.832 37.8297 16.088 37.6857 16.384C37.5497 16.672 37.4817 16.988 37.4817 17.332V17.404C37.4817 17.82 37.5537 18.172 37.6977 18.46C37.8417 18.748 38.0417 18.988 38.2977 19.18C38.5617 19.372 38.8697 19.528 39.2217 19.648C39.5737 19.76 39.9617 19.852 40.3857 19.924C40.7057 19.98 40.9697 20.048 41.1777 20.128C41.3857 20.208 41.5497 20.3 41.6697 20.404C41.7897 20.5 41.8737 20.612 41.9217 20.74C41.9697 20.86 41.9937 20.988 41.9937 21.124C41.9937 21.412 41.8777 21.66 41.6457 21.868C41.4137 22.076 41.0577 22.18 40.5777 22.18C39.9617 22.18 39.5057 22.032 39.2097 21.736C38.9217 21.432 38.7777 21.028 38.7777 20.524V20.236H37.1937V20.596C37.1937 21.036 37.2657 21.444 37.4097 21.82C37.5537 22.188 37.7657 22.512 38.0457 22.792C38.3257 23.064 38.6737 23.28 39.0897 23.44C39.5137 23.592 40.0017 23.668 40.5537 23.668C41.0257 23.668 41.4497 23.608 41.8257 23.488C42.2017 23.368 42.5217 23.196 42.7857 22.972C43.0497 22.748 43.2497 22.48 43.3857 22.168C43.5297 21.848 43.6017 21.492 43.6017 21.1V20.956C43.6017 20.22 43.3697 19.664 42.9057 19.288C42.4417 18.912 41.7697 18.644 40.8897 18.484C40.5377 18.42 40.2457 18.352 40.0137 18.28C39.7897 18.208 39.6057 18.128 39.4617 18.04C39.3257 17.944 39.2297 17.84 39.1737 17.728C39.1177 17.608 39.0897 17.476 39.0897 17.332C39.0897 17.052 39.2057 16.832 39.4377 16.672C39.6697 16.504 39.9857 16.42 40.3857 16.42C40.8577 16.42 41.2217 16.544 41.4777 16.792ZM50.8054 15.1H44.7574V16.612H46.9894V23.5H48.5734V16.612H50.8054V15.1ZM53.701 21.7H56.557L56.965 23.5H58.621L56.617 15.1H53.641L51.637 23.5H53.293L53.701 21.7ZM56.209 20.188H54.037L55.021 15.892H55.237L56.209 20.188ZM63.7367 23.5H65.3207V20.596C65.3207 20.316 65.2367 20.084 65.0687 19.9C64.9087 19.716 64.6887 19.608 64.4087 19.576V19.36C64.7927 19.2 65.0767 18.972 65.2607 18.676C65.4447 18.372 65.5367 18.048 65.5367 17.704V17.416C65.5367 17.096 65.4767 16.796 65.3567 16.516C65.2447 16.236 65.0767 15.992 64.8527 15.784C64.6367 15.568 64.3647 15.4 64.0367 15.28C63.7087 15.16 63.3287 15.1 62.8967 15.1H59.6807V23.5H61.2647V20.332H63.0887C63.3207 20.332 63.4847 20.392 63.5807 20.512C63.6847 20.632 63.7367 20.788 63.7367 20.98V23.5ZM62.7767 18.82H61.2647V16.612H62.7767C63.1607 16.612 63.4527 16.716 63.6527 16.924C63.8527 17.124 63.9527 17.364 63.9527 17.644V17.788C63.9527 18.116 63.8527 18.372 63.6527 18.556C63.4527 18.732 63.1607 18.82 62.7767 18.82ZM72.8483 15.1H66.8003V16.612H69.0323V23.5H70.6163V16.612H72.8483V15.1ZM83.1637 15.1H81.5797V23.5H83.1637V20.044H85.8757V23.5H87.4597V15.1H85.8757V18.532H83.1637V15.1ZM94.4833 15.1H89.1793V23.5H94.6273V21.988H90.7633V20.044H94.3393V18.532H90.7633V16.612H94.4833V15.1ZM100.475 23.5H102.059V20.596C102.059 20.316 101.975 20.084 101.807 19.9C101.647 19.716 101.427 19.608 101.147 19.576V19.36C101.531 19.2 101.815 18.972 101.999 18.676C102.183 18.372 102.275 18.048 102.275 17.704V17.416C102.275 17.096 102.215 16.796 102.095 16.516C101.983 16.236 101.815 15.992 101.591 15.784C101.375 15.568 101.103 15.4 100.775 15.28C100.447 15.16 100.067 15.1 99.635 15.1H96.419V23.5H98.003V20.332H99.827C100.059 20.332 100.223 20.392 100.319 20.512C100.423 20.632 100.475 20.788 100.475 20.98V23.5ZM99.515 18.82H98.003V16.612H99.515C99.899 16.612 100.191 16.716 100.391 16.924C100.591 17.124 100.691 17.364 100.691 17.644V17.788C100.691 18.116 100.591 18.372 100.391 18.556C100.191 18.732 99.899 18.82 99.515 18.82ZM109.179 15.1H103.875V23.5H109.323V21.988H105.459V20.044H109.035V18.532H105.459V16.612H109.179V15.1Z" fill="white"/>
</svg>
