<svg width="40" height="40" viewBox="0 0 40 40" fill="none" xmlns="http://www.w3.org/2000/svg">
<path d="M20.0442 0.980469C17.7197 0.980469 15.835 9.4112 15.835 19.811C15.835 30.211 17.7197 38.6417 20.0442 38.6417C22.3685 38.6417 24.2533 30.211 24.2533 19.811C24.2533 9.4112 22.3685 0.980469 20.0442 0.980469ZM20.3347 37.579C20.069 37.9335 19.8031 37.6675 19.8031 37.6675C18.7327 36.4272 18.1974 34.1229 18.1974 34.1229C16.3251 28.0973 16.7707 15.1596 16.7707 15.1596C17.6507 4.88834 19.2514 2.46196 19.7961 1.92328C19.8517 1.86831 19.9249 1.8347 20.0028 1.82841C20.0808 1.8221 20.1585 1.8435 20.2223 1.88883C21.0125 2.44887 21.6756 4.79101 21.6756 4.79101C23.6329 12.0574 23.4557 18.8807 23.4557 18.8807C23.6329 24.818 22.4749 31.464 22.4749 31.464C21.5834 36.5149 20.3347 37.579 20.3347 37.579Z" fill="white"/>
<path d="M36.3775 10.4399C35.2201 8.42305 26.9703 10.984 17.9449 16.1592C8.9197 21.3345 2.55342 27.1651 3.70984 29.1812C4.86627 31.1972 13.1172 28.6371 22.1425 23.462C31.1675 18.2867 37.5339 12.456 36.3775 10.4399ZM4.77755 28.9045C4.33448 28.8488 4.43457 28.4846 4.43457 28.4846C4.97807 26.9392 6.70763 25.3281 6.70763 25.3281C11.0045 20.7051 22.4491 14.6536 22.4491 14.6536C31.7954 10.3052 34.6984 10.4887 35.4348 10.6915C35.5104 10.7126 35.5761 10.7597 35.6202 10.8246C35.6643 10.8895 35.6842 10.9679 35.676 11.046C35.5875 12.0107 33.8816 13.7506 33.8816 13.7506C28.5564 19.0665 22.5492 22.3089 22.5492 22.3089C17.4876 25.4183 11.1464 27.7198 11.1464 27.7198C6.3214 29.4584 4.77755 28.9045 4.77755 28.9045Z" fill="white"/>
<path d="M36.3364 29.2484C37.5026 27.2368 31.1525 21.3793 22.1589 16.1652C13.1654 10.951 4.91636 8.35841 3.75115 10.3734C2.58594 12.3884 8.93517 18.2424 17.9339 23.4566C26.9326 28.6707 35.1712 31.2635 36.3364 29.2484ZM4.52394 11.1507C4.35167 10.7422 4.71533 10.6439 4.71533 10.6439C6.32533 10.3398 8.58685 11.0327 8.58685 11.0327C14.7394 12.4337 25.7101 19.3058 25.7101 19.3058C34.1568 25.2165 35.4522 27.8199 35.6465 28.5589C35.6663 28.6347 35.6585 28.715 35.6247 28.7857C35.5911 28.8565 35.5334 28.9129 35.4621 28.9452C34.5814 29.3485 32.2222 28.7478 32.2222 28.7478C24.9515 26.7981 19.1366 23.2262 19.1366 23.2262C13.912 20.4083 8.74568 16.0723 8.74568 16.0723C4.82006 12.7671 4.52514 11.1552 4.52514 11.1552L4.52394 11.1507Z" fill="white"/>
<path d="M20 22C21.1046 22 22 21.1046 22 20C22 18.8954 21.1046 18 20 18C18.8954 18 18 18.8954 18 20C18 21.1046 18.8954 22 20 22Z" fill="white"/>
<path d="M29.5019 13.1053C30.4429 13.1053 31.206 12.3424 31.206 11.4012C31.206 10.4601 30.4429 9.69714 29.5019 9.69714C28.5606 9.69714 27.7979 10.4601 27.7979 11.4012C27.7979 12.3424 28.5606 13.1053 29.5019 13.1053Z" fill="white"/>
<path d="M7.91697 17.4429C8.85811 17.4429 9.62104 16.68 9.62104 15.7389C9.62104 14.7977 8.85811 14.0348 7.91697 14.0348C6.97583 14.0348 6.21289 14.7977 6.21289 15.7389C6.21289 16.68 6.97583 17.4429 7.91697 17.4429Z" fill="white"/>
<path d="M17.5215 34.163C18.4626 34.163 19.2255 33.4 19.2255 32.4588C19.2255 31.5177 18.4626 30.7549 17.5215 30.7549C16.5803 30.7549 15.8174 31.5177 15.8174 32.4588C15.8174 33.4 16.5803 34.163 17.5215 34.163Z" fill="white"/>
</svg>
