<svg width="47" height="48" viewBox="0 0 47 48" fill="none" xmlns="http://www.w3.org/2000/svg">
<path d="M23.4995 46.7724C17.3386 46.7724 11.4299 44.325 7.07344 39.9685C2.71697 35.612 0.269531 29.7034 0.269531 23.5424V23.5424C0.277481 17.3866 2.72843 11.4857 7.08404 7.13571C11.4396 2.78573 17.3437 0.342402 23.4995 0.342407V0.342407C29.6553 0.342402 35.5594 2.78573 39.915 7.13571C44.2706 11.4857 46.7216 17.3866 46.7295 23.5424V23.5424C46.7295 29.7034 44.2821 35.612 39.9256 39.9685C35.5692 44.325 29.6605 46.7724 23.4995 46.7724V46.7724Z" stroke="white" stroke-width="0.5" stroke-miterlimit="10"/>
<path d="M19.0387 15.6687C18.2761 15.6687 15.9771 16.6012 15.5647 16.7876C15.1523 16.974 14.6944 17.5558 14.1747 18.5161C13.655 19.4764 13.2374 20.5986 12.5595 22.2498C11.8817 23.9009 11.7236 27.0848 11.7462 28.0564C11.7688 29.028 11.8801 29.7864 12.8756 30.3611C13.871 30.9359 14.7511 31.5364 15.6775 31.8979C16.6039 32.2594 17.2364 32.5191 17.6657 32.1575C18.095 31.796 18.3777 31.1635 18.3777 31.1635C18.3777 31.1635 18.7844 30.5987 18.0162 30.2598C17.248 29.9208 16.8639 29.6833 16.8978 29.3331C16.9317 28.9829 16.9878 28.7911 17.1799 28.8363C17.3719 28.8815 17.8242 29.6947 19.564 30.0675C21.3038 30.4404 23 30.3841 23 30.3841C23 30.3841 24.6963 30.4404 26.4361 30.0675C28.1759 29.6947 28.6281 28.8815 28.8202 28.8363C29.0122 28.7911 29.0684 28.9829 29.1023 29.3331C29.1362 29.6833 28.7521 29.9208 27.9839 30.2598C27.2157 30.5987 27.6224 31.1635 27.6224 31.1635C27.6224 31.1635 27.9051 31.796 28.3344 32.1575C28.7637 32.5191 29.3961 32.2594 30.3225 31.8979C31.2489 31.5364 32.129 30.9359 33.1245 30.3611C34.12 29.7864 34.2313 29.028 34.2539 28.0564C34.2765 27.0848 34.1184 23.9009 33.4405 22.2498C32.7627 20.5986 32.3451 19.4764 31.8254 18.5161C31.3057 17.5558 30.8477 16.974 30.4354 16.7876C30.023 16.6012 27.7239 15.6687 26.9613 15.6687C26.1988 15.6687 25.9733 16.1999 25.9733 16.1999L25.7076 16.7876C25.7076 16.7876 23.9214 16.4482 23.0118 16.4478C22.1021 16.4473 20.2924 16.7876 20.2924 16.7876L20.0268 16.1999C20.0268 16.1999 19.8013 15.6687 19.0387 15.6687ZM19.1216 22.7186C19.1309 22.7185 19.1402 22.7185 19.1496 22.7186C20.2614 22.7186 21.1627 23.6914 21.1627 24.8915C21.1627 26.0915 20.2614 27.0643 19.1496 27.0643C18.0377 27.0643 17.1364 26.0915 17.1364 24.8915C17.1363 23.7031 18.0207 22.7351 19.1216 22.7186H19.1216ZM26.8505 22.7186C26.8598 22.7185 26.8691 22.7185 26.8785 22.7186C27.9793 22.7351 28.8637 23.7031 28.8636 24.8915C28.8636 26.0915 27.9623 27.0643 26.8505 27.0643C25.7387 27.0643 24.8374 26.0915 24.8374 24.8915C24.8374 23.6914 25.7387 22.7186 26.8505 22.7186H26.8505Z" fill="white"/>
</svg>
