<svg width="357" height="325" viewBox="0 0 357 325" fill="none" xmlns="http://www.w3.org/2000/svg">
<path d="M139.421 0.827148V324.676" stroke="#1F1E1E" stroke-width="0.348713"/>
<path d="M249.613 0.806885V324.647" stroke="#1F1E1E" stroke-width="0.348713"/>
<path d="M32.9062 0.751709V324.592" stroke="#1F1E1E" stroke-width="0.348713"/>
<path d="M356.588 107.469H0.261526" stroke="#1F1E1E" stroke-width="0.348713"/>
<circle cx="300.572" cy="50.9781" r="2.83334" transform="rotate(46.1002 300.572 50.9781)" fill="#1F1E1E"/>
<path d="M307.945 54.5549L306.39 59.9435L302.501 55.9022L307.945 54.5549Z" fill="#1F1E1E"/>
<path d="M356.636 217.663H32.6825" stroke="#1F1E1E" stroke-width="0.348713"/>
<path d="M139.405 217.661L32.9561 324.465" stroke="#1F1E1E" stroke-width="0.348713"/>
<path d="M249.654 0.935547L356.466 107.415" stroke="#1F1E1E" stroke-width="0.348713"/>
<path d="M249.54 107.469L356.506 217.619" stroke="#1F1E1E" stroke-width="0.348713"/>
<path d="M249.563 324.514L139.487 217.661" stroke="#1F1E1E" stroke-width="0.348713"/>
<path d="M249.575 0.925557L139.421 107.469" stroke="#1F1E1E" stroke-width="0.348713"/>
<path d="M249.613 107.469L139.542 217.552" stroke="#1F1E1E" stroke-width="0.348713"/>
<path d="M249.663 324.524L356.51 217.71" stroke="#1F1E1E" stroke-width="0.348713"/>
<path d="M32.7453 217.664L139.375 324.546" stroke="#1F1E1E" stroke-width="0.348713"/>
<path d="M32.9356 0.871116L249.537 217.633" stroke="#1F1E1E" stroke-width="0.348713"/>
<circle cx="249.604" cy="189.395" r="2.83334" transform="rotate(-78.9858 249.604 189.395)" fill="#1F1E1E"/>
<circle cx="32.6223" cy="74.382" r="2.83334" transform="rotate(-78.9858 32.6223 74.382)" fill="#1F1E1E"/>
<path d="M246.858 178.726L252.467 178.724L249.664 183.582L246.858 178.726Z" fill="#1F1E1E"/>
<path d="M29.8777 63.7131L35.4862 63.7108L32.6839 68.5691L29.8777 63.7131Z" fill="#1F1E1E"/>
</svg>
