<svg width="357" height="325" viewBox="0 0 357 325" fill="none" xmlns="http://www.w3.org/2000/svg">
<path d="M139.058 0.828857V324.677" stroke="#1F1E1E" stroke-width="0.348713"/>
<path d="M249.251 0.808594V324.649" stroke="#1F1E1E" stroke-width="0.348713"/>
<path d="M32.5439 0.753662V324.594" stroke="#1F1E1E" stroke-width="0.348713"/>
<path d="M356.226 107.471H0.16296" stroke="#1F1E1E" stroke-width="0.348713"/>
<circle cx="300.209" cy="50.9798" r="2.83334" transform="rotate(46.1002 300.209 50.9798)" fill="#1F1E1E"/>
<path d="M307.583 54.5566L306.028 59.9452L302.139 55.9039L307.583 54.5566Z" fill="#1F1E1E"/>
<path d="M356.273 217.664H0.302121" stroke="#1F1E1E" stroke-width="0.348713"/>
<path d="M139.043 217.663L32.5937 324.467" stroke="#1F1E1E" stroke-width="0.348713"/>
<path d="M249.292 0.937256L356.104 107.417" stroke="#1F1E1E" stroke-width="0.348713"/>
<path d="M249.177 107.471L356.143 217.621" stroke="#1F1E1E" stroke-width="0.348713"/>
<path d="M249.201 324.515L139.125 217.662" stroke="#1F1E1E" stroke-width="0.348713"/>
<path d="M249.212 0.927266L139.058 107.471" stroke="#1F1E1E" stroke-width="0.348713"/>
<path d="M249.251 107.471L139.18 217.554" stroke="#1F1E1E" stroke-width="0.348713"/>
<path d="M249.301 324.526L356.147 217.712" stroke="#1F1E1E" stroke-width="0.348713"/>
<path d="M32.382 217.666L139.012 324.548" stroke="#1F1E1E" stroke-width="0.348713"/>
<path d="M32.5733 0.872825L249.174 217.634" stroke="#1F1E1E" stroke-width="0.348713"/>
<circle cx="189.943" cy="266.568" r="2.83334" transform="rotate(-129.019 189.943 266.568)" fill="#1F1E1E"/>
<circle cx="32.26" cy="74.3837" r="2.83334" transform="rotate(-78.9858 32.26 74.3837)" fill="#1F1E1E"/>
<path d="M180.004 261.819L183.605 257.519L185.528 262.787L180.004 261.819Z" fill="#1F1E1E"/>
<path d="M29.5144 63.7148L35.1229 63.7125L32.3207 68.5708L29.5144 63.7148Z" fill="#1F1E1E"/>
</svg>
