<svg width="346" height="346" viewBox="0 0 346 346" fill="none" xmlns="http://www.w3.org/2000/svg">
<path d="M341.98 341.612L345.467 338.125V345.099H338.493L341.98 341.612Z" fill="#1F1E1E"/>
<path d="M12.0986 345.099L0.939827 345.099L0.939827 333.94" stroke="#1F1E1E" stroke-width="0.348713"/>
<path d="M118.106 11.0962V334.945" stroke="#1F1E1E" stroke-width="0.348713"/>
<path d="M228.3 11.0757V334.916" stroke="#1F1E1E" stroke-width="0.348713"/>
<path d="M335.274 117.738H11.5031" stroke="#1F1E1E" stroke-width="0.348713"/>
<circle cx="206.833" cy="205.833" r="2.83334" fill="#1F1E1E"/>
<path d="M118.238 222L121.042 226.857H115.434L118.238 222Z" fill="#1F1E1E"/>
<path d="M335.322 227.932H11.369" stroke="#1F1E1E" stroke-width="0.348713"/>
<path d="M118.093 227.93L11.6436 334.734" stroke="#1F1E1E" stroke-width="0.348713"/>
<path d="M228.341 11.2046L335.152 117.684" stroke="#1F1E1E" stroke-width="0.348713"/>
<path d="M228.226 117.738L335.191 227.888" stroke="#1F1E1E" stroke-width="0.348713"/>
<path d="M228.25 334.782L118.174 227.93" stroke="#1F1E1E" stroke-width="0.348713"/>
<path d="M228.261 11.1944L118.106 117.738" stroke="#1F1E1E" stroke-width="0.348713"/>
<path d="M228.3 117.738L118.229 227.821" stroke="#1F1E1E" stroke-width="0.348713"/>
<path d="M228.35 334.793L335.196 227.979" stroke="#1F1E1E" stroke-width="0.348713"/>
<path d="M11.4308 227.933L118.061 334.815" stroke="#1F1E1E" stroke-width="0.348713"/>
<path d="M11.4375 11.1397L228.224 227.901" stroke="#1F1E1E" stroke-width="0.348713"/>
<circle cx="296.346" cy="267.394" r="2.83334" transform="rotate(-37.9931 296.346 267.394)" fill="#1F1E1E"/>
<path d="M301.272 257.54L305.507 261.218L300.205 263.046L301.272 257.54Z" fill="#1F1E1E"/>
<path d="M225.618 66.8049L231.226 66.8026L228.424 71.6609L225.618 66.8049Z" fill="#1F1E1E"/>
<path d="M11 227.814L117.847 121" stroke="#1F1E1E" stroke-width="0.348713"/>
</svg>
