<svg width="47" height="48" viewBox="0 0 47 48" fill="none" xmlns="http://www.w3.org/2000/svg">
<path d="M23.4995 46.7724C17.3386 46.7724 11.4299 44.325 7.07344 39.9685C2.71697 35.612 0.269531 29.7034 0.269531 23.5424V23.5424C0.277481 17.3866 2.72843 11.4857 7.08404 7.13571C11.4396 2.78573 17.3437 0.342402 23.4995 0.342407V0.342407C29.6553 0.342402 35.5594 2.78573 39.915 7.13571C44.2706 11.4857 46.7216 17.3866 46.7295 23.5424V23.5424C46.7295 29.7034 44.2821 35.612 39.9256 39.9685C35.5692 44.325 29.6605 46.7724 23.4995 46.7724V46.7724Z" stroke="white" stroke-width="0.5" stroke-miterlimit="10"/>
<path d="M23.4992 14.2821C26.4992 14.2821 26.8692 14.2821 28.0592 14.3521C28.7766 14.3584 29.4874 14.4904 30.1592 14.7421C30.6472 14.9267 31.0904 15.213 31.4594 15.5819C31.8283 15.9509 32.1146 16.3941 32.2992 16.8821C32.5509 17.5539 32.6829 18.2647 32.6892 18.9821C32.7492 20.1721 32.7592 20.5321 32.7592 23.5421C32.7592 26.5521 32.7592 26.9121 32.6892 28.1121C32.6847 28.8264 32.5526 29.5342 32.2992 30.2021C32.1219 30.6938 31.8346 31.1384 31.4592 31.5021C31.0942 31.8782 30.6501 32.1685 30.1592 32.3521C29.486 32.5988 28.7761 32.7306 28.0592 32.7421C26.8692 32.7421 26.5092 32.8021 23.4992 32.8021C20.4892 32.8021 20.1192 32.8021 18.9292 32.7421C18.2154 32.7322 17.5086 32.6003 16.8392 32.3521C16.3518 32.1616 15.9092 31.8722 15.5392 31.5022C15.1691 31.1321 14.8797 30.6895 14.6892 30.2021C14.441 29.5328 14.3091 28.8259 14.2992 28.1121C14.2492 26.9121 14.2392 26.5621 14.2392 23.5421C14.2392 20.5221 14.2392 20.1721 14.2992 18.9821C14.3107 18.2652 14.4425 17.5553 14.6892 16.8821C14.8728 16.3912 15.1631 15.9472 15.5392 15.5821C15.9029 15.2067 16.3475 14.9194 16.8392 14.7421C17.5071 14.4887 18.2149 14.3566 18.9292 14.3521C20.1192 14.2921 20.4792 14.2821 23.4992 14.2821ZM23.4992 12.2821C20.4292 12.2821 20.0492 12.2821 18.8392 12.3521C17.9028 12.3671 16.976 12.543 16.0992 12.8721C15.3482 13.1593 14.6665 13.6023 14.0992 14.1721C13.523 14.7342 13.079 15.4173 12.7992 16.1721C12.4701 17.0527 12.2909 17.9823 12.2692 18.9221C12.2192 20.1221 12.1992 20.5021 12.1992 23.5721C12.1992 26.6421 12.1992 27.0221 12.2692 28.2321C12.2919 29.1686 12.471 30.0947 12.7992 30.9721C13.079 31.7269 13.523 32.41 14.0992 32.9721C14.664 33.545 15.3464 33.9886 16.0992 34.2721C16.9766 34.6003 17.9027 34.7795 18.8392 34.8021C20.0492 34.8021 20.4292 34.8721 23.4992 34.8721C26.5692 34.8721 26.9492 34.8721 28.1492 34.8021C29.0891 34.7804 30.0186 34.6012 30.8992 34.2721C31.6521 33.9886 32.3345 33.545 32.8992 32.9721C33.469 32.4048 33.9121 31.7231 34.1992 30.9721C34.5283 30.0953 34.7042 29.1685 34.7192 28.2321C34.7792 27.0221 34.7892 26.6421 34.7892 23.5721C34.7892 20.5021 34.7892 20.1221 34.7192 18.9221C34.7052 17.9824 34.5292 17.0521 34.1992 16.1721C33.9104 15.4219 33.4675 14.7407 32.8991 14.1723C32.3307 13.6038 31.6494 13.1609 30.8992 12.8721C30.0198 12.5387 29.0895 12.3594 28.1492 12.3421C26.9492 12.2821 26.5692 12.2721 23.4992 12.2721" fill="white"/>
<path d="M23.4992 17.7428C22.3521 17.7428 21.2307 18.083 20.2769 18.7203C19.3231 19.3576 18.5797 20.2634 18.1407 21.3232C17.7017 22.3831 17.5869 23.5492 17.8107 24.6743C18.0345 25.7994 18.5869 26.8329 19.398 27.644C20.2091 28.4552 21.2426 29.0076 22.3677 29.2314C23.4928 29.4551 24.659 29.3403 25.7188 28.9013C26.7786 28.4623 27.6844 27.7189 28.3217 26.7651C28.9591 25.8113 29.2992 24.6899 29.2992 23.5428C29.2992 22.7811 29.1492 22.0269 28.8577 21.3232C28.5662 20.6196 28.139 19.9802 27.6004 19.4416C27.0619 18.903 26.4225 18.4758 25.7188 18.1843C25.0151 17.8928 24.2609 17.7428 23.4992 17.7428ZM23.4992 27.3128C22.7532 27.3148 22.0233 27.0954 21.402 26.6823C20.7807 26.2693 20.2959 25.6812 20.0091 24.9925C19.7222 24.3038 19.6461 23.5454 19.7904 22.8135C19.9348 22.0815 20.293 21.4088 20.8199 20.8806C21.3467 20.3523 22.0185 19.9923 22.75 19.846C23.4816 19.6997 24.2402 19.7738 24.9296 20.0588C25.6191 20.3439 26.2085 20.8271 26.6232 21.4473C27.0379 22.0675 27.2592 22.7967 27.2592 23.5428C27.2632 24.0396 27.1689 24.5322 26.9818 24.9924C26.7948 25.4526 26.5186 25.8713 26.1692 26.2245C25.8198 26.5776 25.404 26.8582 24.9458 27.0501C24.4876 27.242 23.996 27.3415 23.4992 27.3428" fill="white"/>
<path d="M30.8791 17.5127C30.8811 17.7826 30.8028 18.0469 30.6541 18.2721C30.5054 18.4972 30.2931 18.6731 30.0442 18.7773C29.7953 18.8814 29.521 18.9092 29.2563 18.8571C28.9916 18.8049 28.7483 18.6752 28.5575 18.4844C28.3667 18.2936 28.237 18.0503 28.1848 17.7856C28.1327 17.5208 28.1604 17.2466 28.2646 16.9977C28.3688 16.7488 28.5447 16.5365 28.7698 16.3878C28.995 16.2391 29.2593 16.1608 29.5291 16.1628C29.8872 16.1628 30.2306 16.305 30.4837 16.5582C30.7369 16.8113 30.8791 17.1547 30.8791 17.5127Z" fill="white"/>
</svg>
