<svg width="40" height="40" viewBox="0 0 40 40" fill="none" xmlns="http://www.w3.org/2000/svg">
<path fill-rule="evenodd" clip-rule="evenodd" d="M13.5041 7.72848L19.8845 11.5237L26.518 7.75531L20.0266 4L20.0265 4.00007L20.0263 4H20.0262L13.5041 7.72848ZM33.9854 19.6207L27.4346 23.372L27.4346 16.2991V16.0147L27.1902 15.8693L20.8735 12.112L27.523 8.33449L33.9605 12.0586L33.985 12.0446V12.0449L33.9854 12.0447V19.6207ZM33.9916 23.326L31.5981 24.6385V22.1401L33.9916 20.7695V23.326ZM33.0497 24.983L34 24.4619V28.1822V28.1827L31.5981 29.5557L31.5981 25.8128L33.0497 24.983ZM27.4346 31.8845V28.1416L30.4087 26.4414V26.4415L30.4089 26.4414V30.1837V30.1841L27.4346 31.8845ZM13.4513 32.4229L13.4513 24.9864L19.7492 28.6382L19.9984 28.7827L20.2485 28.6395L26.4346 25.097L26.4346 32.4843L19.9579 36.1868V36.1869L19.9577 36.1868L19.9576 36.1869L19.9574 36.1869H19.9574L19.956 36.1861V36.186L13.4513 32.4229ZM6.00326 20.6678L12.4513 24.4066L12.4513 31.7744L6.00646 28.046L6.00326 28.044V20.6678ZM6.00984 16.9503L8.76856 18.4724L8.76855 21.1153L6.00984 19.5157V16.9503ZM8.76168 10.394L11.6077 12.1383L9.02634 13.5679L8.76857 13.7106L8.76857 14.0053L8.76856 17.3074L6.00303 15.7075L6.00153 15.7066V11.9737L6 11.9728L8.76168 10.394ZM12.5116 8.30162L9.79508 9.8545L12.613 11.5816L15.416 10.0293L12.5116 8.30162ZM30.4005 22.8259V25.2953L27.4346 26.9218V24.5244L30.4005 22.8259ZM16.1031 13.6719L18.8839 12.0921L16.4112 10.6213L13.5928 12.1821L14.6823 12.8499L16.1031 13.6719ZM12.4513 19.3621L12.4513 16.0374V15.7464L12.7043 15.6026L15.0686 14.2595L12.5875 12.7389L9.76857 14.3L9.76856 17.81L12.4513 19.3621ZM19.956 20.0303L19.9562 20.0304L19.9568 20.03L26.2147 16.4526L26.4346 16.5834L26.4346 23.9447L20.0016 27.6285L13.4513 23.8305L13.4513 16.3284L19.8729 12.6804L26.2128 16.4515L20.0123 19.9981L19.956 20.0303ZM12.4513 20.5042L12.4513 23.2507L9.76855 21.6951L9.76856 19.0241L12.4513 20.5042Z" fill="black"/>
</svg>
