<svg width="47" height="48" viewBox="0 0 47 48" fill="none" xmlns="http://www.w3.org/2000/svg">
<path d="M23.4995 46.8024C17.3386 46.8024 11.4299 44.355 7.07346 39.9985C2.71699 35.642 0.269531 29.7334 0.269531 23.5724V23.5724C0.269531 17.4114 2.71699 11.5028 7.07346 7.14632C11.4299 2.78985 17.3386 0.342407 23.4995 0.342407V0.342407C29.6605 0.342407 35.5692 2.78985 39.9256 7.14632C44.2821 11.5028 46.7295 17.4114 46.7295 23.5724V23.5724C46.7295 29.7334 44.2821 35.642 39.9256 39.9985C35.5692 44.355 29.6605 46.8024 23.4995 46.8024V46.8024Z" stroke="white" stroke-width="0.5" stroke-miterlimit="10"/>
<path d="M17.8401 18.9625H13.5801V32.7325H17.8401V18.9625Z" fill="white"/>
<path d="M15.69 17.1626C16.1932 17.1665 16.6862 17.0209 17.1065 16.7443C17.5268 16.4676 17.8555 16.0723 18.0508 15.6085C18.2461 15.1448 18.2993 14.6334 18.2036 14.1394C18.1078 13.6454 17.8675 13.1909 17.5131 12.8337C17.1587 12.4765 16.7061 12.2326 16.2129 12.1329C15.7196 12.0333 15.2079 12.0824 14.7426 12.2741C14.2773 12.4657 13.8794 12.7912 13.5994 13.2094C13.3195 13.6275 13.17 14.1194 13.1699 14.6226C13.1686 14.9548 13.2328 15.2841 13.3587 15.5915C13.4846 15.899 13.6699 16.1786 13.9039 16.4145C14.1379 16.6503 14.4161 16.8378 14.7225 16.9662C15.029 17.0945 15.3577 17.1613 15.69 17.1626Z" fill="white"/>
<path d="M24.6601 25.5127C24.6601 23.5727 25.5501 22.4228 27.2601 22.4228C28.9701 22.4228 29.5801 23.5227 29.5801 25.5127V32.7428H33.8201V23.9928C33.8201 20.3028 31.7301 18.5128 28.8201 18.5128C27.9902 18.5016 27.1717 18.7058 26.4444 19.1054C25.717 19.505 25.1057 20.0864 24.6701 20.7928V18.9928H20.5801V32.7728H24.6701L24.6601 25.5127Z" fill="white"/>
</svg>
