<svg width="47" height="48" viewBox="0 0 47 48" fill="none" xmlns="http://www.w3.org/2000/svg">
<path d="M23.4995 46.7724C17.3386 46.7724 11.4299 44.325 7.07344 39.9685C2.71697 35.612 0.269531 29.7034 0.269531 23.5424V23.5424C0.277481 17.3866 2.72843 11.4857 7.08404 7.13571C11.4396 2.78573 17.3437 0.342402 23.4995 0.342407V0.342407C29.6553 0.342402 35.5594 2.78573 39.915 7.13571C44.2706 11.4857 46.7216 17.3866 46.7295 23.5424V23.5424C46.7295 29.7034 44.2821 35.612 39.9256 39.9685C35.5692 44.325 29.6605 46.7724 23.4995 46.7724V46.7724Z" stroke="white" stroke-width="0.5" stroke-miterlimit="10"/>
<g clip-path="url(#clip0_757_1893)">
<path d="M24.9476 23.4862C24.9476 27.3255 21.8563 30.4379 18.0433 30.4379C14.2302 30.4379 11.1387 27.3255 11.1387 23.4862C11.1387 19.6468 14.2299 16.5342 18.0433 16.5342C21.8566 16.5342 24.9476 19.6468 24.9476 23.4862Z" fill="white"/>
<path d="M32.5218 23.4862C32.5218 27.1001 30.9761 30.0309 29.0695 30.0309C27.1628 30.0309 25.6172 27.1001 25.6172 23.4862C25.6172 19.8722 27.1626 16.9414 29.0692 16.9414C30.9759 16.9414 32.5215 19.8713 32.5215 23.4862" fill="white"/>
<path d="M35.6205 23.4861C35.6205 26.7233 35.077 29.3492 34.4063 29.3492C33.7357 29.3492 33.1924 26.724 33.1924 23.4861C33.1924 20.2482 33.7359 17.623 34.4063 17.623C35.0768 17.623 35.6205 20.248 35.6205 23.4861Z" fill="white"/>
</g>
<defs>
<clipPath id="clip0_757_1893">
<rect width="27" height="27" fill="white" transform="translate(10 10)"/>
</clipPath>
</defs>
</svg>
