<svg width="346" height="345" viewBox="0 0 346 345" fill="none" xmlns="http://www.w3.org/2000/svg">
<path d="M12.1592 344.528L1.00037 344.528L1.00037 333.37" stroke="#1F1E1E" stroke-width="0.348713"/>
<path d="M118.167 10.5254V334.374" stroke="#1F1E1E" stroke-width="0.348713"/>
<path d="M228.36 10.5049V334.345" stroke="#1F1E1E" stroke-width="0.348713"/>
<path d="M335.335 117.167H11.5637" stroke="#1F1E1E" stroke-width="0.348713"/>
<circle cx="206.894" cy="205.263" r="2.83334" fill="#1F1E1E"/>
<path d="M118.299 221.429L121.103 226.286H115.494L118.299 221.429Z" fill="#1F1E1E"/>
<path d="M335.383 227.361H11.4295" stroke="#1F1E1E" stroke-width="0.348713"/>
<path d="M118.153 227.359L11.7041 334.163" stroke="#1F1E1E" stroke-width="0.348713"/>
<path d="M228.401 10.6338L335.213 117.113" stroke="#1F1E1E" stroke-width="0.348713"/>
<path d="M228.286 117.167L335.252 227.317" stroke="#1F1E1E" stroke-width="0.348713"/>
<path d="M228.31 334.211L118.234 227.359" stroke="#1F1E1E" stroke-width="0.348713"/>
<path d="M228.321 10.6236L118.167 117.167" stroke="#1F1E1E" stroke-width="0.348713"/>
<path d="M228.361 117.167L118.289 227.25" stroke="#1F1E1E" stroke-width="0.348713"/>
<path d="M228.41 334.222L335.257 227.408" stroke="#1F1E1E" stroke-width="0.348713"/>
<path d="M11.4914 227.362L118.121 334.244" stroke="#1F1E1E" stroke-width="0.348713"/>
<path d="M11.4981 10.5689L228.284 227.331" stroke="#1F1E1E" stroke-width="0.348713"/>
<circle cx="296.407" cy="266.823" r="2.83334" transform="rotate(-37.9931 296.407 266.823)" fill="#1F1E1E"/>
<path d="M301.333 256.97L305.567 260.647L300.265 262.476L301.333 256.97Z" fill="#1F1E1E"/>
<path d="M225.678 66.2341L231.287 66.2318L228.485 71.0901L225.678 66.2341Z" fill="#1F1E1E"/>
<path d="M11.0606 227.244L117.907 120.429" stroke="#1F1E1E" stroke-width="0.348713"/>
</svg>
