<svg width="47" height="48" viewBox="0 0 47 48" fill="none" xmlns="http://www.w3.org/2000/svg">
<path d="M23.4995 46.7724C17.3386 46.7724 11.4299 44.325 7.07344 39.9685C2.71697 35.612 0.269531 29.7034 0.269531 23.5424V23.5424C0.277481 17.3866 2.72843 11.4857 7.08404 7.13571C11.4396 2.78573 17.3437 0.342402 23.4995 0.342407V0.342407C29.6553 0.342402 35.5594 2.78573 39.915 7.13571C44.2706 11.4857 46.7216 17.3866 46.7295 23.5424V23.5424C46.7295 29.7034 44.2821 35.612 39.9256 39.9685C35.5692 44.325 29.6605 46.7724 23.4995 46.7724V46.7724Z" stroke="white" stroke-width="0.5" stroke-miterlimit="10"/>
<path d="M32.9393 15.6219L29.7705 30.5656C29.5315 31.6203 28.908 31.8828 28.0221 31.3859L23.194 27.8281L20.8643 30.0687C20.6065 30.3265 20.3908 30.5422 19.894 30.5422L20.2408 25.625L29.1893 17.539C29.5783 17.1922 29.1049 17 28.5846 17.3469L17.5221 24.3125L12.7596 22.8219C11.7236 22.4984 11.7049 21.7859 12.9752 21.289L31.6033 14.1125C32.4658 13.789 33.2205 14.3047 32.9393 15.6219Z" fill="white"/>
</svg>
