<svg width="47" height="48" viewBox="0 0 47 48" fill="none" xmlns="http://www.w3.org/2000/svg">
<path d="M23.4995 46.7724C17.3386 46.7724 11.4299 44.325 7.07344 39.9685C2.71697 35.612 0.269531 29.7034 0.269531 23.5424V23.5424C0.277481 17.3866 2.72844 11.4857 7.08405 7.13571C11.4397 2.78573 17.3438 0.342402 23.4995 0.342407V0.342407C29.6605 0.342407 35.5692 2.78985 39.9256 7.14632C44.2821 11.5028 46.7295 17.4114 46.7295 23.5724V23.5724C46.7216 29.7282 44.2706 35.6291 39.915 39.9791C35.5594 44.3291 29.6553 46.7724 23.4995 46.7724V46.7724Z" stroke="white" stroke-width="0.5" stroke-miterlimit="10"/>
<path d="M12.5293 31.3422C14.5073 32.6077 16.7951 33.3051 19.1426 33.3583C21.4902 33.4116 23.8072 32.8185 25.8405 31.6439C27.8738 30.4694 29.5451 28.7585 30.6718 26.6983C31.7986 24.6381 32.3373 22.3079 32.2293 19.9622C33.113 19.3269 33.8752 18.5376 34.4793 17.6322C33.6563 17.9971 32.7833 18.2364 31.8893 18.3422C32.8398 17.7868 33.552 16.9002 33.8893 15.8522C33.0066 16.3791 32.0388 16.748 31.0293 16.9422C30.349 16.2241 29.4514 15.7495 28.4749 15.5916C27.4983 15.4338 26.4969 15.6013 25.625 16.0686C24.753 16.5358 24.0589 17.2768 23.6495 18.1773C23.2401 19.0779 23.1381 20.088 23.3593 21.0522C21.5694 20.9633 19.8182 20.4988 18.2195 19.6891C16.6207 18.8794 15.2101 17.7425 14.0793 16.3522C13.5049 17.3416 13.3288 18.5127 13.587 19.6273C13.8452 20.7418 14.5183 21.7162 15.4693 22.3522C14.7676 22.3192 14.083 22.1241 13.4693 21.7822C13.435 22.8358 13.7701 23.8683 14.4165 24.701C15.0629 25.5337 15.9801 26.1142 17.0093 26.3422C16.3565 26.5168 15.6727 26.5407 15.0093 26.4122C15.2938 27.3078 15.8521 28.0916 16.6056 28.6531C17.3591 29.2147 18.2697 29.5256 19.2093 29.5422C18.2696 30.2681 17.1956 30.8008 16.0492 31.1097C14.9027 31.4187 13.7064 31.4977 12.5293 31.3422Z" fill="white"/>
</svg>
