<svg width="144" height="37" viewBox="0 0 144 37" fill="none" xmlns="http://www.w3.org/2000/svg">
<path d="M135 36L143 36L143 28" stroke="white" stroke-width="0.5"/>
<path d="M9 36L1 36L1 28" stroke="white" stroke-width="0.5"/>
<path d="M135 1L143 1L143 9" stroke="white" stroke-width="0.5"/>
<path d="M9 1L5 1L3 3L1 5L1 9" stroke="white" stroke-width="0.5"/>
<path fill-rule="evenodd" clip-rule="evenodd" d="M140 5H7V32H140V5ZM44.6355 23.5H47.3955L47.6835 15.1H46.2435L46.0515 21.484V22.564H45.7635V21.484L45.3795 15.1H42.8355L42.4515 21.484V22.564H42.1635V21.484L41.9715 15.1H40.5315L40.8195 23.5H43.5795L43.9635 17.116V15.964H44.2515V17.116L44.6355 23.5ZM50.0992 15.1H48.5152V23.5H50.0992V20.044H52.8112V23.5H54.3952V15.1H52.8112V18.532H50.0992V15.1ZM61.6109 15.1H55.9949V16.612H58.0109V21.988H55.9949V23.5H61.6109V21.988H59.5949V16.612H61.6109V15.1ZM69.1745 15.1H63.1265V16.612H65.3585V23.5H66.9425V16.612H69.1745V15.1ZM76.1142 15.1H70.8102V23.5H76.2582V21.988H72.3942V20.044H75.9702V18.532H72.3942V16.612H76.1142V15.1ZM79.7418 15.1H78.1578V23.5H83.5578V21.988H79.7418V15.1ZM91.0015 15.1H85.3855V16.612H87.4015V21.988H85.3855V23.5H91.0015V21.988H88.9855V16.612H91.0015V15.1ZM96.5851 16.792C96.8491 17.04 96.9811 17.332 96.9811 17.668V17.956H98.5651V17.524C98.5651 17.18 98.4971 16.852 98.3611 16.54C98.2331 16.228 98.0371 15.952 97.7731 15.712C97.5171 15.472 97.1971 15.284 96.8131 15.148C96.4291 15.004 95.9891 14.932 95.4931 14.932C95.0531 14.932 94.6531 14.992 94.2931 15.112C93.9411 15.232 93.6371 15.4 93.3811 15.616C93.1331 15.832 92.9371 16.088 92.7931 16.384C92.6571 16.672 92.5891 16.988 92.5891 17.332V17.404C92.5891 17.82 92.6611 18.172 92.8051 18.46C92.9491 18.748 93.1491 18.988 93.4051 19.18C93.6691 19.372 93.9771 19.528 94.3291 19.648C94.6811 19.76 95.0691 19.852 95.4931 19.924C95.8131 19.98 96.0771 20.048 96.2851 20.128C96.4931 20.208 96.6571 20.3 96.7771 20.404C96.8971 20.5 96.9811 20.612 97.0291 20.74C97.0771 20.86 97.1011 20.988 97.1011 21.124C97.1011 21.412 96.9851 21.66 96.7531 21.868C96.5211 22.076 96.1651 22.18 95.6851 22.18C95.0691 22.18 94.6131 22.032 94.3171 21.736C94.0291 21.432 93.8851 21.028 93.8851 20.524V20.236H92.3011V20.596C92.3011 21.036 92.3731 21.444 92.5171 21.82C92.6611 22.188 92.8731 22.512 93.1531 22.792C93.4331 23.064 93.7811 23.28 94.1971 23.44C94.6211 23.592 95.1091 23.668 95.6611 23.668C96.1331 23.668 96.5571 23.608 96.9331 23.488C97.3091 23.368 97.6291 23.196 97.8931 22.972C98.1571 22.748 98.3571 22.48 98.4931 22.168C98.6371 21.848 98.7091 21.492 98.7091 21.1V20.956C98.7091 20.22 98.4771 19.664 98.0131 19.288C97.5491 18.912 96.8771 18.644 95.9971 18.484C95.6451 18.42 95.3531 18.352 95.1211 18.28C94.8971 18.208 94.7131 18.128 94.5691 18.04C94.4331 17.944 94.3371 17.84 94.2811 17.728C94.2251 17.608 94.1971 17.476 94.1971 17.332C94.1971 17.052 94.3131 16.832 94.5451 16.672C94.7771 16.504 95.0931 16.42 95.4931 16.42C95.9651 16.42 96.3291 16.544 96.5851 16.792ZM105.913 15.1H99.8648V16.612H102.097V23.5H103.681V16.612H105.913V15.1Z" fill="white"/>
</svg>
