<svg width="47" height="48" viewBox="0 0 47 48" fill="none" xmlns="http://www.w3.org/2000/svg">
<path d="M23.4995 46.8024C17.3386 46.8024 11.4299 44.355 7.07344 39.9985C2.71697 35.642 0.269531 29.7334 0.269531 23.5724V23.5724C0.269531 17.4114 2.71697 11.5028 7.07344 7.14632C11.4299 2.78985 17.3386 0.342407 23.4995 0.342407V0.342407C29.6605 0.342407 35.5692 2.78985 39.9256 7.14632C44.2821 11.5028 46.7295 17.4114 46.7295 23.5724V23.5724C46.7295 29.7334 44.2821 35.642 39.9256 39.9985C35.5692 44.355 29.6605 46.8024 23.4995 46.8024V46.8024Z" stroke="white" stroke-width="0.5" stroke-miterlimit="10"/>
<path d="M26.4991 20.9617C26.7872 20.9349 27.066 20.8459 27.3164 20.7009C27.5667 20.5559 27.7826 20.3583 27.9491 20.1217V20.8617H29.2091V14.1217H27.9491V19.2417C27.7991 19.4417 27.4591 19.7517 27.2091 19.7517C26.9591 19.7517 26.8791 19.5717 26.8791 19.3017V14.1217H25.6191V19.7617C25.6191 20.4217 25.8291 20.9617 26.4991 20.9617Z" fill="white"/>
<path d="M20.9102 19.1831C20.8803 19.4306 20.9076 19.6816 20.99 19.9169C21.0724 20.1522 21.2076 20.3655 21.3854 20.5403C21.5631 20.7151 21.7785 20.8468 22.0151 20.9253C22.2517 21.0038 22.5032 21.027 22.7502 20.9931C22.9909 21.0045 23.2313 20.9655 23.4561 20.8786C23.6809 20.7917 23.885 20.6587 24.0554 20.4883C24.2258 20.3179 24.3587 20.1138 24.4457 19.889C24.5326 19.6643 24.5716 19.4238 24.5602 19.1831V15.8731C24.567 15.6331 24.5249 15.3942 24.4365 15.1709C24.3481 14.9477 24.2152 14.7448 24.0459 14.5745C23.8766 14.4043 23.6744 14.2702 23.4516 14.1806C23.2289 14.091 22.9902 14.0476 22.7502 14.0531C22.5061 14.0372 22.2615 14.0732 22.0324 14.1588C21.8033 14.2443 21.5949 14.3775 21.421 14.5495C21.2472 14.7215 21.1117 14.9284 21.0237 15.1565C20.9356 15.3847 20.8969 15.6289 20.9102 15.8731V19.1831ZM22.2002 15.9831C22.2002 15.6131 22.3802 15.3331 22.7302 15.3331C23.0802 15.3331 23.2802 15.6031 23.2802 15.9831V19.1231C23.2802 19.4931 23.0902 19.7631 22.7502 19.7631C22.6707 19.7609 22.5926 19.7422 22.5209 19.708C22.4491 19.6739 22.3853 19.6251 22.3335 19.5648C22.2817 19.5046 22.2431 19.4341 22.2201 19.3581C22.1972 19.282 22.1904 19.202 22.2002 19.1231V15.9831Z" fill="white"/>
<path d="M17.9193 20.8625H19.3293V17.1525L20.9793 11.7125H19.5393L18.6393 15.3725L17.6593 11.7125H16.2393L17.9193 17.1525V20.8625Z" fill="white"/>
<path d="M30.8997 22.403H16.0997C15.3359 22.403 14.6034 22.7064 14.0633 23.2465C13.5232 23.7866 13.2197 24.5191 13.2197 25.283V32.553C13.2197 32.9312 13.2942 33.3057 13.439 33.6551C13.5837 34.0045 13.7958 34.322 14.0633 34.5894C14.3307 34.8569 14.6482 35.069 14.9976 35.2137C15.347 35.3585 15.7215 35.433 16.0997 35.433H30.8997C31.2775 35.433 31.6515 35.3584 32.0003 35.2135C32.3492 35.0687 32.666 34.8564 32.9327 34.5888C33.1993 34.3213 33.4105 34.0037 33.5541 33.6543C33.6978 33.305 33.771 32.9307 33.7697 32.553V25.283C33.771 24.9052 33.6978 24.5309 33.5541 24.1816C33.4105 23.8322 33.1993 23.5147 32.9327 23.2471C32.666 22.9795 32.3492 22.7672 32.0003 22.6224C31.6515 22.4775 31.2775 22.403 30.8997 22.403ZM18.0497 33.273H16.7197V25.823H15.3297V24.553H19.4597V25.823H18.0497V33.273ZM22.8397 33.273H21.6397V32.563C21.4465 32.798 21.217 33.0005 20.9597 33.163C20.3097 33.533 19.4297 33.523 19.4297 32.223V26.843H20.6197V31.773C20.6197 32.033 20.6897 32.213 20.9397 32.213C21.1897 32.213 21.4997 31.913 21.6397 31.723V26.843H22.8397V33.273ZM27.4397 31.943C27.4397 32.743 27.1397 33.353 26.3497 33.353C26.128 33.3558 25.9089 33.3055 25.7105 33.2063C25.5122 33.1072 25.3405 32.962 25.2097 32.783V33.273H24.0497V24.553H25.2497V27.363C25.3729 27.1903 25.5327 27.047 25.7176 26.9433C25.9026 26.8396 26.1082 26.778 26.3197 26.763C27.1897 26.763 27.4797 27.503 27.4797 28.373L27.4397 31.943ZM31.8597 30.213H29.5997V31.423C29.5997 31.903 29.5997 32.323 30.1197 32.323C30.6397 32.323 30.6497 31.983 30.6497 31.423V30.973H31.8797V31.463C31.8797 32.703 31.3497 33.463 30.0897 33.463C28.8297 33.463 28.3597 32.633 28.3597 31.463V28.573C28.3429 28.3264 28.3778 28.0789 28.4624 27.8467C28.5469 27.6144 28.6792 27.4024 28.8506 27.2244C29.0221 27.0463 29.2289 26.9062 29.4578 26.8129C29.6868 26.7197 29.9327 26.6754 30.1797 26.683C31.3297 26.683 31.8797 27.413 31.8797 28.573L31.8597 30.213Z" fill="white"/>
<path d="M30.1296 27.8131C29.6896 27.8131 29.5996 28.1231 29.5996 28.5631V29.2131H30.6496V28.5631C30.6496 28.1231 30.5596 27.8131 30.1296 27.8131Z" fill="white"/>
<path d="M25.4795 27.8524C25.3848 27.8993 25.3 27.9638 25.2295 28.0424V32.0424C25.3154 32.1318 25.4129 32.2092 25.5195 32.2724C25.6154 32.327 25.7263 32.3497 25.8359 32.3371C25.9456 32.3245 26.0484 32.2774 26.1295 32.2025C26.2085 32.07 26.2435 31.916 26.2295 31.7624V28.4424C26.2427 28.2691 26.1969 28.0964 26.0995 27.9524C26.0242 27.8658 25.9209 27.8083 25.8076 27.7901C25.6943 27.7718 25.5782 27.7939 25.4795 27.8524Z" fill="white"/>
</svg>
